<svg width="315" height="200" viewBox="0 0 315 200" fill="none" xmlns="http://www.w3.org/2000/svg">
<path fill-rule="evenodd" clip-rule="evenodd" d="M92.6617 81.5496L70.5454 112.551L94.3864 109.928V125.797L50 130.28V117.53L71.5907 86.9643L50.5459 89.4665V74.0138L92.6617 68.4821V81.5496ZM237.716 94.6299C241.355 93.3487 244.106 90.9928 245.961 87.5646C247.837 84.0445 248.267 80.4793 247.243 76.8723C246.211 73.2318 244.02 70.5918 240.68 68.9504C237.402 67.3709 233.95 67.2505 230.327 68.5843C226.717 69.9131 223.994 72.295 222.152 75.7298C220.332 79.2207 219.934 82.7542 220.952 86.342C221.96 89.8972 224.1 92.4988 227.379 94.1536C230.648 95.7448 234.092 95.9069 237.716 94.6299ZM217.709 55.756C224.74 50.7592 232.401 49.005 240.688 50.5352C249.046 52.1081 255.548 56.5475 260.154 63.8443C264.741 71.1126 266.069 79.083 264.148 87.7144C262.222 96.259 257.648 102.906 250.468 107.669C243.323 112.406 235.704 113.905 227.597 112.204C219.524 110.485 213.286 106.111 208.848 99.0779C204.392 92.0151 202.997 84.2955 204.674 75.878C206.381 67.4387 210.712 60.7287 217.709 55.7552V55.756ZM140.318 62.3995V92.0622C140.318 95.721 139.125 98.9837 136.745 101.849C134.402 104.7 131.57 106.306 128.254 106.672C124.95 107.034 122.133 106.059 119.798 103.75C117.468 101.447 116.306 98.4931 116.306 94.8836V65.6137L101.411 67.6061V96.6353C101.411 104.593 103.991 111.149 109.177 116.327C114.393 121.469 120.744 123.675 128.254 122.917C133.777 122.361 137.805 120.437 140.318 117.138V119.189C140.318 122.846 139.125 126.092 136.745 128.92C134.402 131.736 131.57 133.299 128.254 133.613C128.254 133.613 119.466 134.721 113.592 128.41L104.345 136.385L101.366 138.956C101.366 138.956 110.696 149.958 125.407 150L125.416 149.983C126.349 150.003 127.291 149.993 128.254 149.911C135.765 149.268 142.24 145.807 147.657 139.499C153.105 133.223 155.859 125.946 155.892 117.702V60.316L140.318 62.3995ZM199.912 68.7928V54.7174C199.912 54.7174 189.675 54.8269 184.326 58.23H184.327C183.551 58.6668 182.82 59.1779 182.145 59.756L182.185 57.0566L166.765 59.0891V118.938L181.283 117.681L181.762 85.4565C182.058 81.6898 184.244 70.2044 199.912 68.7928Z" fill="white"/>
</svg>
